<?xml version="1.0"?>
<svg width="110" height="135" xmlns="http://www.w3.org/2000/svg" xmlns:svg="http://www.w3.org/2000/svg" version="1.1">
 <g class="layer">
  <title>Layer 1</title>
  <path d="m42.78,84.97c1.42,0 2.55,1.14 2.55,2.53c0,1.4 -1.14,2.53 -2.55,2.53l-10.38,0c-1.42,0 -2.55,-1.13 -2.55,-2.53c0,-1.39 1.14,-2.53 2.55,-2.53l10.38,0zm23.44,-2.92c-1.42,0 -2.55,-1.14 -2.55,-2.53c0,-1.4 1.14,-2.53 2.55,-2.53l9.14,0c1.4,0 2.55,1.13 2.55,2.53c0,1.39 -1.15,2.53 -2.55,2.53l-9.14,0zm-55.74,-20.12c-0.82,-1.14 -0.57,-2.71 0.57,-3.53c1.14,-0.82 2.73,-0.57 3.56,0.56l0.84,1.15l2.49,-5.99c0.54,-1.29 2.03,-1.9 3.33,-1.38c1.3,0.53 1.92,2.01 1.38,3.3l-4.19,10.02c-0.15,0.47 -0.47,0.91 -0.91,1.23c-1.14,0.81 -2.73,0.57 -3.56,-0.57l-3.51,-4.79l-0.01,0zm8.5,-17.03c3.29,0.53 6.24,2.09 8.49,4.32c2.82,2.79 4.57,6.66 4.57,10.93c0,4.27 -1.75,8.14 -4.57,10.93c-2.25,2.24 -5.2,3.79 -8.49,4.34l0,40.72c0,1.39 0.57,2.65 1.49,3.56c0.92,0.91 2.2,1.48 3.61,1.48l74.12,0c1.4,0 2.68,-0.57 3.61,-1.48c0.92,-0.92 1.49,-2.19 1.49,-3.58l0,-98.24c0,-1.38 -0.57,-2.64 -1.49,-3.56c-0.92,-0.91 -2.21,-1.49 -3.61,-1.49l-54.12,0l0,14.75c0,2.78 -1.15,5.32 -3,7.15c-1.85,1.83 -4.41,2.97 -7.23,2.97l-14.89,0l0,7.19zm-5.11,30.51c-3.29,-0.54 -6.24,-2.1 -8.49,-4.32c-2.82,-2.79 -4.58,-6.67 -4.58,-10.95c0,-4.26 1.76,-8.13 4.58,-10.93c2.25,-2.22 5.2,-3.78 8.49,-4.32l0,-27.01c0,-2.78 1.15,-5.31 3,-7.14c1.84,-1.83 4.41,-2.97 7.21,-2.97l74.12,0c2.82,0 5.38,1.14 7.23,2.97c1.85,1.83 2.99,4.36 2.99,7.14l0,98.24c0,2.78 -1.14,5.31 -2.99,7.14c-1.85,1.83 -4.41,2.97 -7.23,2.97l-74.12,0c-2.8,0 -5.35,-1.14 -7.2,-2.97l-0.01,-0.01c-1.85,-1.83 -3,-4.36 -3,-7.13l0,-40.72l0,0.01zm9.99,-22.63c-1.89,-1.87 -4.53,-3.05 -7.43,-3.05c-2.9,0 -5.53,1.18 -7.44,3.05c-1.89,1.88 -3.08,4.49 -3.08,7.37s1.19,5.47 3.08,7.36c1.9,1.88 4.55,3.05 7.44,3.05c2.9,0 5.53,-1.16 7.43,-3.05c1.9,-1.88 3.08,-4.49 3.08,-7.36s-1.17,-5.47 -3.08,-7.37zm8.33,61.19c-1.42,0 -2.55,-1.14 -2.55,-2.53s1.14,-2.53 2.55,-2.53l57.95,0c1.4,0 2.55,1.13 2.55,2.53s-1.15,2.53 -2.55,2.53l-57.95,0zm0,-7.99c-1.42,0 -2.55,-1.14 -2.55,-2.53c0,-1.4 1.14,-2.53 2.55,-2.53l57.95,0c1.4,0 2.55,1.13 2.55,2.53c0,1.39 -1.15,2.53 -2.55,2.53l-57.95,0zm0,-7.99c-1.42,0 -2.55,-1.13 -2.55,-2.53c0,-1.39 1.14,-2.53 2.55,-2.53l57.95,0c1.4,0 2.55,1.14 2.55,2.53c0,1.4 -1.15,2.53 -2.55,2.53l-57.95,0zm17.91,-7.98c-1.42,0 -2.55,-1.14 -2.55,-2.53s1.14,-2.53 2.55,-2.53l40.03,0c1.42,0 2.55,1.13 2.55,2.53s-1.14,2.53 -2.55,2.53l-40.03,0zm7.52,-13.05c1.42,0 2.55,1.13 2.55,2.53s-1.14,2.53 -2.55,2.53l-25.44,0c-1.42,0 -2.55,-1.13 -2.55,-2.53s1.14,-2.53 2.55,-2.53l25.44,0zm29.37,-11.19c-0.55,-3.49 -2.21,-6.62 -4.62,-9.01c-2.99,-2.96 -7.11,-4.79 -11.67,-4.79s-8.68,1.83 -11.67,4.79c-2.41,2.39 -4.09,5.52 -4.64,9.01l32.61,0l-0.01,0zm-1.02,-12.59c3.91,3.87 6.33,9.22 6.33,15.12c0,1.4 -1.15,2.53 -2.55,2.53l-38.12,0c-1.4,0 -2.55,-1.13 -2.55,-2.53c0,-5.9 2.43,-11.25 6.33,-15.12c1.98,-1.96 4.34,-3.54 6.96,-4.63c-0.98,-0.62 -1.9,-1.34 -2.73,-2.16c-2.82,-2.79 -4.57,-6.66 -4.57,-10.93s1.75,-8.14 4.57,-10.93c2.82,-2.79 6.74,-4.53 11.05,-4.53c4.32,0 8.22,1.73 11.06,4.53c2.82,2.79 4.57,6.66 4.57,10.93s-1.75,8.14 -4.57,10.93c-0.83,0.82 -1.75,1.54 -2.73,2.16c2.62,1.09 4.98,2.67 6.96,4.63zm-7.84,-25.08c-1.9,-1.88 -4.53,-3.05 -7.43,-3.05c-2.91,0 -5.54,1.16 -7.44,3.05c-1.9,1.88 -3.08,4.49 -3.08,7.36s1.17,5.47 3.08,7.37c1.9,1.87 4.53,3.05 7.44,3.05c2.9,0 5.53,-1.18 7.43,-3.05c1.9,-1.88 3.08,-4.49 3.08,-7.37s-1.17,-5.47 -3.08,-7.36zm-42.74,-15.31l-11.3,0c-1.4,0 -2.68,0.58 -3.6,1.49c-0.93,0.92 -1.51,2.19 -1.51,3.56l0,11.19l16.41,-16.24z" id="svg_1"/>
 </g>
</svg>